<svg xmlns="http://www.w3.org/2000/svg" width="140" height="140" fill="none" viewBox="0 0 140 140"><path fill="#01579B" d="M28.5517 111.448L4.60079 87.4975C1.76004 84.5847 0 80.4676 0 76.4432C0 74.5803 1.04985 71.6674 1.84238 70L23.9509 23.9509L28.5517 111.448Z"/><path fill="#40C4FF" d="M110.532 28.5517L86.5811 4.60079C84.4917 2.5011 80.138 0 76.4532 0C73.2831 0 70.1747 0.638141 68.1677 1.84238L23.9609 23.9509L110.532 28.5517Z"/><path fill="#40C4FF" d="M57.1031 140H115.133V115.133L71.8421 101.31L32.2362 115.133L57.1031 140Z"/><path fill="#29B6F6" d="M23.9504 98.5517C23.9504 105.942 24.8768 107.753 28.5512 111.448L32.236 115.133H115.133L74.6106 69.084L23.9504 23.9509V98.5517Z"/><path fill="#01579B" d="M97.6352 23.9406H23.9504L115.133 115.123H140V58.0194L110.522 28.5414C106.384 24.3935 102.709 23.9406 97.6352 23.9406Z"/><path fill="#fff" d="M29.4781 112.364C25.7934 108.669 24.8773 105.026 24.8773 98.5517V24.867L23.9613 23.9509V98.5517C23.951 105.026 23.951 106.817 29.4781 112.364L32.2365 115.123L29.4781 112.364Z" opacity=".2"/><path fill="#263238" d="M139.084 57.1033V114.207H114.217L115.133 115.133H140V58.0194L139.084 57.1033Z" opacity=".2"/><path fill="#fff" d="M110.532 28.5517C105.962 23.9818 102.226 23.9509 96.7194 23.9509H23.9609L24.877 24.867H96.7194C99.4675 24.867 106.405 24.4038 110.532 28.5517Z" opacity=".2"/><path fill="url(#paint0_radial_14_59)" d="M139.084 57.1034L110.532 28.5517L86.5816 4.60079C84.4922 2.5011 80.1384 0 76.4537 0C73.2836 0 70.1752 0.638141 68.1681 1.84238L23.9614 23.9509L1.85287 70C1.06034 71.6777 0.010498 74.5905 0.010498 76.4432C0.010498 80.4676 1.78083 84.5743 4.61129 87.4974L26.6786 109.41C27.2036 110.059 27.8211 110.718 28.5519 111.448L29.4679 112.364L32.2264 115.123L56.1772 139.074L57.0933 139.99H114.197H115.113V115.123H139.98V115.061V58.0194L139.084 57.1034Z" opacity=".2"/><path fill="#fff" fill-rule="evenodd" d="M38.7237 83.6394C37.7723 82.0347 37.7579 79.9908 38.6867 78.3706L73.6551 17.3772C75.6001 13.9848 80.2965 14.2814 81.8545 17.8951L113.8 91.9942C114.985 94.7436 113.621 97.9784 110.909 98.8485L61.2152 114.79C59.2158 115.431 57.0616 114.571 55.9439 112.686L38.7237 83.6394ZM77.6897 35.2112C78.0266 33.4169 80.3258 33.1582 81.0049 34.8381L103.04 89.3604C103.455 90.387 102.939 91.5708 101.937 91.8905L67.6024 102.85C66.3404 103.253 65.1315 102.074 65.3908 100.693L77.6897 35.2112Z" clip-rule="evenodd"/><defs><radialGradient id="paint0_radial_14_59" cx="0" cy="0" r="1" gradientTransform="translate(69.9951 69.9971) scale(69.9897 69.9897)" gradientUnits="userSpaceOnUse"><stop stop-color="#fff" stop-opacity=".1"/><stop offset="1" stop-color="#fff" stop-opacity="0"/></radialGradient></defs></svg>